<!--suppress XmlHighlighting -->
<svg version="1" xmlns="http://www.w3.org/2000/svg" width="1365.333" height="1365.333" viewBox="0 0 1024.000000 1024.000000"><path d="M179.5 101.6c-1.6.3-6.8 1.7-11.5 3.1-30.7 9.2-53.8 32.3-63.7 63.8-2.6 8.4-2.8 10.1-2.8 26s.2 17.6 2.9 26c10.1 31.8 32.4 54.2 64.1 64.2 8.4 2.6 10.1 2.8 26 2.8s17.6-.2 26-2.8c31.7-10 54-32.4 64.1-64.2 2.7-8.4 2.9-10.1 2.9-26s-.2-17.6-2.9-26c-10-31.5-31.9-53.7-63-63.8-8.1-2.6-10.7-2.9-24.1-3.2-8.2-.2-16.3-.1-18 .1zM493 102.6c-28.5 6.1-52.2 24.7-65 50.9-7.4 15.1-9.5 24-9.5 41s2.1 25.9 9.5 41c10.4 21.4 28.4 38.1 50.2 46.5 20.9 8.1 46.7 8.1 67.6 0 21.8-8.4 39.8-25.1 50.2-46.5 7.4-15.1 9.5-24 9.5-41s-2.1-25.9-9.5-41c-12.9-26.4-36.8-45.1-65.2-50.9-9.5-2-28.8-2-37.8 0zM810 102.6c-28.5 6.1-52.2 24.7-65 50.9-7.4 15.1-9.5 24-9.5 41s2.1 25.9 9.5 41c10.4 21.4 28.4 38.1 50.2 46.5 20.9 8.1 46.7 8.1 67.6 0 21.8-8.4 39.8-25.1 50.2-46.5 7.4-15.1 9.5-24 9.5-41s-2.1-25.9-9.5-41c-12.9-26.4-36.8-45.1-65.2-50.9-9.5-2-28.8-2-37.8 0zM180.5 419.4c-38.4 7.5-68.2 36.5-75.9 73.8-2.1 9.9-2.1 27.7 0 37.6 5.8 28.4 24.5 52.3 50.9 65.2 15.1 7.4 24 9.5 41 9.5s25.9-2.1 41-9.5c26.4-12.9 45.1-36.8 50.9-65.2.9-4.3 1.6-12.6 1.6-18.8 0-29.3-12.5-55.2-35.5-73.6-8.5-6.7-24.2-14.6-35-17.4-10.3-2.7-29.2-3.5-39-1.6zM494 420c-19.9 4.2-33.7 11.7-48 26-26.5 26.5-34.7 62.6-22.1 98.1 8.8 24.8 31.2 47.2 56 56 27.5 9.7 55.5 7 80.3-7.7 11.2-6.6 25.6-21 32.2-32.2 17.9-30.2 17.9-66.2 0-96.4-6.6-11.2-21-25.6-32.2-32.2-20.2-12-44.6-16.3-66.2-11.6zM813.5 419.4c-38.4 7.5-68.2 36.5-75.9 73.8-3.3 16.2-1.6 37.1 4.4 52.6 8.4 21.8 25.1 39.8 46.5 50.2 15.1 7.4 24 9.5 41 9.5s25.9-2.1 41-9.5c26.4-12.9 45.1-36.8 50.9-65.2.9-4.3 1.6-12.6 1.6-18.8 0-29.3-12.5-55.2-35.5-73.6-8.5-6.7-24.2-14.6-35-17.4-10.3-2.7-29.2-3.5-39-1.6zM179.5 736.6c-1.6.3-6.8 1.7-11.5 3.1-30.7 9.2-53.8 32.3-63.7 63.8-2.6 8.4-2.8 10.1-2.8 26s.2 17.6 2.9 26c10.1 31.8 32.4 54.2 64.1 64.2 8.4 2.6 10.1 2.8 26 2.8s17.6-.2 26-2.8c31.7-10 54-32.4 64.1-64.2 2.7-8.4 2.9-10.1 2.9-26s-.2-17.6-2.9-26c-10-31.5-31.9-53.7-63-63.8-8.1-2.6-10.7-2.9-24.1-3.2-8.2-.2-16.3-.1-18 .1zM493 737.6c-28.5 6.1-52.2 24.7-65 50.9-7.4 15.1-9.5 24-9.5 41s2.1 25.9 9.5 41c12.9 26.4 36.8 45.1 65.2 50.9 9.9 2.1 27.7 2.1 37.6 0 28.4-5.8 52.3-24.5 65.2-50.9 7.4-15.1 9.5-24 9.5-41s-2.1-25.9-9.5-41c-12.9-26.4-36.8-45.1-65.2-50.9-9.5-2-28.8-2-37.8 0zM814.5 736.6c-1.6.3-6.8 1.7-11.5 3.1-30.7 9.2-53.8 32.3-63.7 63.8-2.6 8.4-2.8 10.1-2.8 26s.2 17.6 2.9 26c10.1 31.8 32.4 54.2 64.1 64.2 8.4 2.6 10.1 2.8 26 2.8s17.6-.2 26-2.8c31.7-10 54-32.4 64.1-64.2 2.7-8.4 2.9-10.1 2.9-26s-.2-17.6-2.9-26c-10-31.5-31.9-53.7-63-63.8-8.1-2.6-10.7-2.9-24.1-3.2-8.2-.2-16.3-.1-18 .1z"/></svg>